<svg viewBox="0 0 361 71" fill="none" xmlns="http://www.w3.org/2000/svg">
    <path d="M51.88 7.336V52.264H40.936V25.32L30.888 52.264H22.056L11.944 25.256V52.264H1V7.336H13.928L26.536 38.44L39.016 7.336H51.88Z" stroke="black" />
    <path d="M53.734 12.84C51.814 12.84 50.2353 12.2853 48.998 11.176C47.8033 10.024 47.206 8.616 47.206 6.952C47.206 5.24534 47.8033 3.83733 48.998 2.728C50.2353 1.576 51.814 1 53.734 1C55.6113 1 57.1473 1.576 58.342 2.728C59.5793 3.83733 60.198 5.24534 60.198 6.952C60.198 8.616 59.5793 10.024 58.342 11.176C57.1473 12.2853 55.6113 12.84 53.734 12.84ZM59.174 16.552V52.264H48.23V16.552H59.174Z" stroke="black" />
    <path d="M53.409 34.408C53.409 30.696 54.1557 27.4533 55.649 24.68C57.185 21.9067 59.297 19.7733 61.985 18.28C64.7157 16.7867 67.8303 16.04 71.329 16.04C75.809 16.04 79.5423 17.2133 82.529 19.56C85.5583 21.9067 87.5423 25.2133 88.481 29.48H76.833C75.8517 26.7493 73.953 25.384 71.137 25.384C69.1317 25.384 67.5317 26.1733 66.337 27.752C65.1423 29.288 64.545 31.5067 64.545 34.408C64.545 37.3093 65.1423 39.5493 66.337 41.128C67.5317 42.664 69.1317 43.432 71.137 43.432C73.953 43.432 75.8517 42.0667 76.833 39.336H88.481C87.5423 43.5173 85.5583 46.8027 82.529 49.192C79.4997 51.5813 75.7663 52.776 71.329 52.776C67.8303 52.776 64.7157 52.0293 61.985 50.536C59.297 49.0427 57.185 46.9093 55.649 44.136C54.1557 41.3627 53.409 38.12 53.409 34.408Z" stroke="black" />
    <path d="M104.767 16.168C108.863 16.168 112.148 17.5333 114.623 20.264C117.098 22.952 118.335 26.664 118.335 31.4V52.264H107.455V32.872C107.455 30.4827 106.836 28.6267 105.599 27.304C104.362 25.9813 102.698 25.32 100.607 25.32C98.5163 25.32 96.8523 25.9813 95.615 27.304C94.3777 28.6267 93.759 30.4827 93.759 32.872V52.264H82.815V4.904H93.759V21.352C94.8683 19.7733 96.383 18.5147 98.303 17.576C100.223 16.6373 102.378 16.168 104.767 16.168Z" stroke="black" />
    <path d="M112.244 34.344C112.244 30.6747 112.927 27.4533 114.292 24.68C115.7 21.9067 117.599 19.7733 119.988 18.28C122.377 16.7867 125.044 16.04 127.988 16.04C130.505 16.04 132.703 16.552 134.58 17.576C136.5 18.6 137.972 19.944 138.996 21.608V16.552H149.94V52.264H138.996V47.208C137.929 48.872 136.436 50.216 134.516 51.24C132.639 52.264 130.441 52.776 127.924 52.776C125.023 52.776 122.377 52.0293 119.988 50.536C117.599 49 115.7 46.8453 114.292 44.072C112.927 41.256 112.244 38.0133 112.244 34.344ZM138.996 34.408C138.996 31.6773 138.228 29.5227 136.692 27.944C135.199 26.3653 133.364 25.576 131.188 25.576C129.012 25.576 127.156 26.3653 125.62 27.944C124.127 29.48 123.38 31.6133 123.38 34.344C123.38 37.0747 124.127 39.2507 125.62 40.872C127.156 42.4507 129.012 43.24 131.188 43.24C133.364 43.24 135.199 42.4507 136.692 40.872C138.228 39.2933 138.996 37.1387 138.996 34.408Z" stroke="black" />
    <path d="M180.001 33.832C180.001 34.856 179.937 35.9227 179.809 37.032H155.041C155.212 39.2507 155.916 40.9573 157.153 42.152C158.433 43.304 159.991 43.88 161.825 43.88C164.556 43.88 166.455 42.728 167.521 40.424H179.169C178.572 42.7707 177.484 44.8827 175.906 46.76C174.37 48.6373 172.428 50.1093 170.081 51.176C167.735 52.2427 165.111 52.776 162.209 52.776C158.711 52.776 155.596 52.0293 152.865 50.536C150.135 49.0427 148.001 46.9093 146.465 44.136C144.929 41.3627 144.161 38.12 144.161 34.408C144.161 30.696 144.908 27.4533 146.401 24.68C147.937 21.9067 150.071 19.7733 152.801 18.28C155.532 16.7867 158.668 16.04 162.209 16.04C165.665 16.04 168.737 16.7653 171.425 18.216C174.113 19.6667 176.204 21.736 177.697 24.424C179.233 27.112 180.001 30.248 180.001 33.832ZM168.801 30.952C168.801 29.0747 168.161 27.5813 166.881 26.472C165.601 25.3627 164.001 24.808 162.081 24.808C160.247 24.808 158.69 25.3413 157.41 26.408C156.172 27.4747 155.404 28.9893 155.105 30.952H168.801Z" stroke="black" />
    <path d="M185.199 4.904V52.264H174.255V4.904H185.199Z" stroke="black" />
    <path d="M222.564 7.336V52.264H211.62V33.768H194.596V52.264H183.652V7.336H194.596V24.936H211.62V7.336H222.564Z" stroke="black" />
    <path d="M252.609 33.832C252.609 34.856 252.545 35.9227 252.417 37.032H227.649C227.82 39.2507 228.524 40.9573 229.761 42.152C231.041 43.304 232.598 43.88 234.433 43.88C237.164 43.88 239.062 42.728 240.129 40.424H251.777C251.18 42.7707 250.092 44.8827 248.513 46.76C246.977 48.6373 245.036 50.1093 242.689 51.176C240.342 52.2427 237.718 52.776 234.817 52.776C231.318 52.776 228.204 52.0293 225.473 50.536C222.742 49.0427 220.609 46.9093 219.073 44.136C217.537 41.3627 216.769 38.12 216.769 34.408C216.769 30.696 217.516 27.4533 219.009 24.68C220.545 21.9067 222.678 19.7733 225.409 18.28C228.14 16.7867 231.276 16.04 234.817 16.04C238.273 16.04 241.345 16.7653 244.033 18.216C246.721 19.6667 248.812 21.736 250.305 24.424C251.841 27.112 252.609 30.248 252.609 33.832ZM241.409 30.952C241.409 29.0747 240.769 27.5813 239.489 26.472C238.209 25.3627 236.609 24.808 234.689 24.808C232.854 24.808 231.297 25.3413 230.017 26.408C228.78 27.4747 228.012 28.9893 227.713 30.952H241.409Z" stroke="black" />
    <path d="M260.431 16.04C262.948 16.04 265.145 16.552 267.022 17.576C268.942 18.6 270.415 19.944 271.439 21.608V16.552H282.383V52.2C282.383 55.4853 281.721 58.4507 280.398 61.096C279.118 63.784 277.135 65.9173 274.447 67.496C271.801 69.0747 268.494 69.864 264.526 69.864C259.236 69.864 254.948 68.6053 251.662 66.088C248.377 63.6133 246.5 60.2427 246.03 55.976H256.846C257.188 57.3413 257.999 58.408 259.279 59.176C260.559 59.9867 262.137 60.392 264.014 60.392C266.276 60.392 268.068 59.7307 269.391 58.408C270.756 57.128 271.439 55.0587 271.439 52.2V47.144C270.372 48.808 268.9 50.1733 267.022 51.24C265.145 52.264 262.948 52.776 260.431 52.776C257.487 52.776 254.82 52.0293 252.43 50.536C250.041 49 248.142 46.8453 246.734 44.072C245.369 41.256 244.686 38.0133 244.686 34.344C244.686 30.6747 245.369 27.4533 246.734 24.68C248.142 21.9067 250.041 19.7733 252.43 18.28C254.82 16.7867 257.487 16.04 260.431 16.04ZM271.439 34.408C271.439 31.6773 270.67 29.5227 269.134 27.944C267.641 26.3653 265.806 25.576 263.63 25.576C261.454 25.576 259.598 26.3653 258.062 27.944C256.569 29.48 255.822 31.6133 255.822 34.344C255.822 37.0747 256.569 39.2507 258.062 40.872C259.598 42.4507 261.454 43.24 263.63 43.24C265.806 43.24 267.641 42.4507 269.134 40.872C270.67 39.2933 271.439 37.1387 271.439 34.408Z" stroke="black" />
    <path d="M300.54 16.168C304.721 16.168 308.049 17.5333 310.524 20.264C313.041 22.952 314.3 26.664 314.3 31.4V52.264H303.42V32.872C303.42 30.4827 302.801 28.6267 301.564 27.304C300.327 25.9813 298.663 25.32 296.572 25.32C294.481 25.32 292.817 25.9813 291.58 27.304C290.343 28.6267 289.724 30.4827 289.724 32.872V52.264H278.78V16.552H289.724V21.288C290.833 19.7093 292.327 18.472 294.204 17.576C296.081 16.6373 298.193 16.168 300.54 16.168Z" stroke="black" />
    <path d="M344.049 33.832C344.049 34.856 343.985 35.9227 343.857 37.032H319.089C319.26 39.2507 319.964 40.9573 321.201 42.152C322.481 43.304 324.038 43.88 325.873 43.88C328.604 43.88 330.502 42.728 331.569 40.424H343.217C342.62 42.7707 341.532 44.8827 339.953 46.76C338.417 48.6373 336.476 50.1093 334.129 51.176C331.782 52.2427 329.158 52.776 326.257 52.776C322.758 52.776 319.644 52.0293 316.913 50.536C314.182 49.0427 312.049 46.9093 310.513 44.136C308.977 41.3627 308.209 38.12 308.209 34.408C308.209 30.696 308.956 27.4533 310.449 24.68C311.985 21.9067 314.118 19.7733 316.849 18.28C319.58 16.7867 322.716 16.04 326.257 16.04C329.713 16.04 332.785 16.7653 335.473 18.216C338.161 19.6667 340.252 21.736 341.745 24.424C343.281 27.112 344.049 30.248 344.049 33.832ZM332.849 30.952C332.849 29.0747 332.209 27.5813 330.929 26.472C329.649 25.3627 328.049 24.808 326.129 24.808C324.294 24.808 322.737 25.3413 321.457 26.408C320.22 27.4747 319.452 28.9893 319.153 30.952H332.849Z" stroke="black" />
    <path d="M349.246 22.504C350.526 20.5413 352.127 19.0053 354.047 17.896C355.967 16.744 358.1 16.168 360.447 16.168V27.752H357.439C354.708 27.752 352.66 28.3493 351.294 29.544C349.929 30.696 349.246 32.744 349.246 35.688V52.264H338.302V16.552H349.246V22.504Z" stroke="black" />
</svg>